# xmcd
#
# Track frame offsets:
#	150
#	18365
#	34165
#	52092
#	72299
#	91169
#	111787
#	133805
#	149049
#	166911
#	187784
#	206965
#	222882
#	240576
#	259114
#	281117
#	301790
#	320070
#
# Disc length: 4498 seconds
#
# Revision: 1
# Processed by: cddbd v1.5.1PL2 Copyright (c) Steve Scherf et al.
# Submitted via: audiograbber 1.83.01
#
DISCID=11119012
DTITLE=София Ротару - Золотая серия
DYEAR=1900
DGENRE=
TTITLE0=Хуторянка
TTITLE1=Край
TTITLE2=Весна
TTITLE3=Луна-луна
TTITLE4=Дикие лебеди
TTITLE5=Ночной мотылек
TTITLE6=Отчий дом
TTITLE7=Водограй
TTITLE8=Лаванда (Й. Йолла)
TTITLE9=Было но прошло
TTITLE10=Меланхолия
TTITLE11=Горькие слезы
TTITLE12=В доме моем
TTITLE13=Только этого мало
TTITLE14=Лебединая верность
TTITLE15=Романтика
TTITLE16=Засентябрило (Н. Расторгуев)
TTITLE17=Червона рута
EXTD=
EXTT0=
EXTT1=
EXTT2=
EXTT3=
EXTT4=
EXTT5=
EXTT6=
EXTT7=
EXTT8=
EXTT9=
EXTT10=
EXTT11=
EXTT12=
EXTT13=
EXTT14=
EXTT15=
EXTT16=
EXTT17=
PLAYORDER=
